<svg width="26" height="24" viewBox="0 0 26 24" fill="none" xmlns="http://www.w3.org/2000/svg">
<path d="M12 2.5C10.1074 2.50016 8.25373 3.03734 6.65431 4.04913C5.05488 5.06092 3.77539 6.50578 2.96449 8.21584C2.15359 9.92591 1.84457 11.831 2.07333 13.7097C2.3021 15.5884 3.05926 17.3636 4.25684 18.8291L2.293 20.793C2.15315 20.9328 2.0579 21.111 2.01931 21.305C1.98072 21.4989 2.00051 21.7 2.07619 21.8827C2.15187 22.0654 2.28003 22.2216 2.44447 22.3315C2.60891 22.4414 2.80223 22.5 3 22.5H12C14.6522 22.5 17.1957 21.4464 19.0711 19.5711C20.9464 17.6957 22 15.1522 22 12.5C22 9.84784 20.9464 7.3043 19.0711 5.42893C17.1957 3.55357 14.6522 2.5 12 2.5ZM9 7.5H15C15.2652 7.5 15.5196 7.60536 15.7071 7.79289C15.8946 7.98043 16 8.23478 16 8.5C16 8.76522 15.8946 9.01957 15.7071 9.20711C15.5196 9.39464 15.2652 9.5 15 9.5H9C8.73479 9.5 8.48043 9.39464 8.2929 9.20711C8.10536 9.01957 8 8.76522 8 8.5C8 8.23478 8.10536 7.98043 8.2929 7.79289C8.48043 7.60536 8.73479 7.5 9 7.5ZM15 17.5H9C8.73479 17.5 8.48043 17.3946 8.2929 17.2071C8.10536 17.0196 8 16.7652 8 16.5C8 16.2348 8.10536 15.9804 8.2929 15.7929C8.48043 15.6054 8.73479 15.5 9 15.5H15C15.2652 15.5 15.5196 15.6054 15.7071 15.7929C15.8946 15.9804 16 16.2348 16 16.5C16 16.7652 15.8946 17.0196 15.7071 17.2071C15.5196 17.3946 15.2652 17.5 15 17.5ZM17 13.5H7C6.73479 13.5 6.48043 13.3946 6.2929 13.2071C6.10536 13.0196 6 12.7652 6 12.5C6 12.2348 6.10536 11.9804 6.2929 11.7929C6.48043 11.6054 6.73479 11.5 7 11.5H17C17.2652 11.5 17.5196 11.6054 17.7071 11.7929C17.8946 11.9804 18 12.2348 18 12.5C18 12.7652 17.8946 13.0196 17.7071 13.2071C17.5196 13.3946 17.2652 13.5 17 13.5Z" fill="#7C60FD"/>
<path d="M15 15.5C15.2652 15.5 15.5195 15.6054 15.707 15.793C15.8946 15.9805 16 16.2348 16 16.5C16 16.7652 15.8946 17.0195 15.707 17.207C15.5195 17.3946 15.2652 17.5 15 17.5H9C8.73478 17.5 8.48051 17.3946 8.29297 17.207C8.10543 17.0195 8 16.7652 8 16.5C8 16.2348 8.10543 15.9805 8.29297 15.793C8.48051 15.6054 8.73478 15.5 9 15.5H15ZM17 11.5C17.2652 11.5 17.5195 11.6054 17.707 11.793C17.8946 11.9805 18 12.2348 18 12.5C18 12.7652 17.8946 13.0195 17.707 13.207C17.5195 13.3946 17.2652 13.5 17 13.5H7C6.73478 13.5 6.48051 13.3946 6.29297 13.207C6.10543 13.0195 6 12.7652 6 12.5C6 12.2348 6.10543 11.9805 6.29297 11.793C6.48051 11.6054 6.73478 11.5 7 11.5H17ZM15 7.5C15.2652 7.5 15.5195 7.60543 15.707 7.79297C15.8946 7.98051 16 8.23478 16 8.5C16 8.76522 15.8946 9.01949 15.707 9.20703C15.5195 9.39457 15.2652 9.5 15 9.5H9C8.73478 9.5 8.48051 9.39457 8.29297 9.20703C8.10543 9.01949 8 8.76522 8 8.5C8 8.23478 8.10543 7.98051 8.29297 7.79297C8.48051 7.60543 8.73478 7.5 9 7.5H15Z" fill="white"/>
</svg>
