<svg width="32" height="26" viewBox="0 0 32 26" fill="none" xmlns="http://www.w3.org/2000/svg">
<path d="M10 15H4C3.73478 15 3.48043 15.1054 3.29289 15.2929C3.10536 15.4804 3 15.7348 3 16V22C3 22.2652 3.10536 22.5196 3.29289 22.7071C3.48043 22.8946 3.73478 23 4 23H10C10.2652 23 10.5196 22.8946 10.7071 22.7071C10.8946 22.5196 11 22.2652 11 22V16C11 15.7348 10.8946 15.4804 10.7071 15.2929C10.5196 15.1054 10.2652 15 10 15ZM20 5H14C13.7348 5 13.4804 5.10536 13.2929 5.29289C13.1054 5.48043 13 5.73478 13 6V12C13 12.2652 13.1054 12.5196 13.2929 12.7071C13.4804 12.8946 13.7348 13 14 13H20C20.2652 13 20.5196 12.8946 20.7071 12.7071C20.8946 12.5196 21 12.2652 21 12V6C21 5.73478 20.8946 5.48043 20.7071 5.29289C20.5196 5.10536 20.2652 5 20 5ZM10 5H4C3.73478 5 3.48043 5.10536 3.29289 5.29289C3.10536 5.48043 3 5.73478 3 6V12C3 12.2652 3.10536 12.5196 3.29289 12.7071C3.48043 12.8946 3.73478 13 4 13H10C10.2652 13 10.5196 12.8946 10.7071 12.7071C10.8946 12.5196 11 12.2652 11 12V6C11 5.73478 10.8946 5.48043 10.7071 5.29289C10.5196 5.10536 10.2652 5 10 5Z" fill="#505966"/>
<path d="M18 18H20C20.2652 18 20.5196 18.1054 20.7071 18.2929C20.8946 18.4804 21 18.7348 21 19C21 19.2652 20.8946 19.5196 20.7071 19.7071C20.5196 19.8946 20.2652 20 20 20H18V22C18 22.2652 17.8946 22.5196 17.7071 22.7071C17.5196 22.8946 17.2652 23 17 23C16.7348 23 16.4804 22.8946 16.2929 22.7071C16.1054 22.5196 16 22.2652 16 22V20H14C13.7348 20 13.4804 19.8946 13.2929 19.7071C13.1054 19.5196 13 19.2652 13 19C13 18.7348 13.1054 18.4804 13.2929 18.2929C13.4804 18.1054 13.7348 18 14 18H16V16C16 15.7348 16.1054 15.4804 16.2929 15.2929C16.4804 15.1054 16.7348 15 17 15C17.2652 15 17.5196 15.1054 17.7071 15.2929C17.8946 15.4804 18 15.7348 18 16V18Z" fill="#A0A4A9"/>
</svg>
