<svg width="24" height="24" viewBox="0 0 24 24" fill="none" xmlns="http://www.w3.org/2000/svg">
<path d="M20.61 19.1903C21.2367 18.3502 21.6668 17.3802 21.8685 16.3517C22.0702 15.3232 22.0383 14.2626 21.7753 13.2481C21.5123 12.2335 21.0249 11.291 20.349 10.49C19.673 9.68907 18.8259 9.05011 17.87 8.6203C17.6618 7.4224 17.1833 6.28772 16.4708 5.30247C15.7584 4.31722 14.8307 3.50733 13.7583 2.93433C12.686 2.36133 11.4971 2.0403 10.282 1.99563C9.06701 1.95097 7.85778 2.18384 6.74623 2.67656C5.63468 3.16927 4.65006 3.90887 3.86719 4.83915C3.08431 5.76943 2.52378 6.86592 2.22818 8.04529C1.93259 9.22467 1.9097 10.4559 2.16127 11.6455C2.41283 12.835 2.93223 13.9516 3.67999 14.9103L2.28999 16.2903C2.15123 16.4309 2.05724 16.6095 2.01986 16.8035C1.98249 16.9975 2.00341 17.1982 2.07999 17.3803C2.15501 17.5629 2.28241 17.7192 2.44613 17.8296C2.60985 17.9399 2.80257 17.9993 2.99999 18.0003H8.68999C9.25664 19.1949 10.15 20.2046 11.2667 20.9125C12.3834 21.6204 13.6778 21.9975 15 22.0003H21C21.1974 21.9993 21.3901 21.9399 21.5539 21.8296C21.7176 21.7192 21.845 21.5629 21.92 21.3803C21.9966 21.1982 22.0175 20.9975 21.9801 20.8035C21.9427 20.6095 21.8487 20.4309 21.71 20.2903L20.61 19.1903ZM7.99999 15.0003C8.00136 15.3352 8.02811 15.6695 8.07999 16.0003H5.40999L5.75999 15.6603C5.85372 15.5673 5.92811 15.4567 5.97888 15.3349C6.02965 15.213 6.05579 15.0823 6.05579 14.9503C6.05579 14.8183 6.02965 14.6876 5.97888 14.5657C5.92811 14.4439 5.85372 14.3333 5.75999 14.2403C5.19955 13.686 4.75524 13.0255 4.45304 12.2975C4.15085 11.5695 3.99683 10.7885 3.99999 10.0003C3.99999 8.409 4.63213 6.88287 5.75735 5.75766C6.88257 4.63244 8.40869 4.0003 9.99999 4.0003C11.2417 3.99284 12.4545 4.37468 13.4679 5.09216C14.4814 5.80964 15.2445 6.82667 15.65 8.0003C15.43 8.0003 15.22 8.0003 15 8.0003C13.1435 8.0003 11.363 8.7378 10.0502 10.0506C8.73749 11.3633 7.99999 13.1438 7.99999 15.0003ZM18.54 20.0003L18.59 20.0503H15C13.8433 20.0482 12.7232 19.6452 11.8303 18.9099C10.9375 18.1746 10.3272 17.1525 10.1034 16.0176C9.87961 14.8828 10.0562 13.7055 10.6031 12.6863C11.1499 11.6671 12.0333 10.869 13.1025 10.428C14.1718 9.98699 15.361 9.93035 16.4673 10.2677C17.5737 10.6051 18.5289 11.3156 19.1701 12.2782C19.8114 13.2409 20.0991 14.3961 19.9842 15.547C19.8693 16.6979 19.3589 17.7734 18.54 18.5903C18.3516 18.7749 18.2437 19.0265 18.24 19.2903C18.2405 19.4226 18.2673 19.5535 18.3188 19.6754C18.3703 19.7972 18.4455 19.9077 18.54 20.0003Z" fill="white"/>
</svg>
