<svg width="24" height="24" viewBox="0 0 24 24" fill="none" xmlns="http://www.w3.org/2000/svg">
<g clip-path="url(#clip0_1_3131)">
<path fill-rule="evenodd" clip-rule="evenodd" d="M0 12C0 5.37258 5.37258 0 12 0C18.6274 0 24 5.37258 24 12C24 18.6274 18.6274 24 12 24C5.37258 24 0 18.6274 0 12Z" fill="url(#paint0_linear_1_3131)"/>
<path d="M17.833 8.33301C18.4773 8.33301 19 8.85567 19 9.5C19 10.1443 18.4773 10.667 17.833 10.667C17.817 10.667 17.801 10.6647 17.7852 10.6641L16.667 16.5L12 15.917L7.33301 16.5L6.21387 10.6641C6.1983 10.6647 6.18271 10.667 6.16699 10.667C5.52266 10.667 5 10.1443 5 9.5C5 8.85567 5.52266 8.33301 6.16699 8.33301C6.81117 8.33318 7.33301 8.85578 7.33301 9.5C7.33301 10.0231 6.98893 10.4652 6.51465 10.6133L9.56934 12.332L12 8.35645L14.4307 12.332L17.4844 10.6133C17.0106 10.4649 16.667 10.0227 16.667 9.5C16.667 8.85578 17.1888 8.33318 17.833 8.33301ZM12 6C12.6443 6 13.167 6.52266 13.167 7.16699C13.1668 7.81117 12.6442 8.33301 12 8.33301C11.3558 8.33301 10.8332 7.81117 10.833 7.16699C10.833 6.52266 11.3557 6 12 6Z" fill="white"/>
</g>
<defs>
<linearGradient id="paint0_linear_1_3131" x1="12" y1="12" x2="22.125" y2="24" gradientUnits="userSpaceOnUse">
<stop stop-color="#FF6D75"/>
<stop offset="1" stop-color="#9C86FF"/>
</linearGradient>
<clipPath id="clip0_1_3131">
<rect width="24" height="24" fill="white"/>
</clipPath>
</defs>
</svg>
