<svg width="24" height="24" viewBox="0 0 24 24" fill="none" xmlns="http://www.w3.org/2000/svg">
<path d="M5 1C5.55228 1 6 1.44772 6 2V2.7802L7.27455 2.52529C9.1153 2.15714 11.0234 2.33232 12.7663 3.0295L12.97 3.11095C14.3359 3.65734 15.8394 3.75938 17.2667 3.40256C18.6551 3.05546 20 4.10556 20 5.53669V12.9037C20 14.0069 19.2492 14.9685 18.179 15.236L17.9645 15.2896C15.991 15.783 13.9123 15.6419 12.0235 14.8864C10.6408 14.3334 9.1271 14.1944 7.66679 14.4864L6 14.8198V22C6 22.5523 5.55228 23 5 23C4.44772 23 4 22.5523 4 22V2C4 1.44772 4.44772 1 5 1Z" fill="#FF6D75"/>
</svg>
