<svg width="26" height="24" viewBox="0 0 26 24" fill="none" xmlns="http://www.w3.org/2000/svg">
<path d="M21.0001 8.02393L15.0001 2.76393C14.4501 2.27198 13.738 2 13.0001 2C12.2622 2 11.5501 2.27198 11.0001 2.76393L5.00009 8.02393C4.68246 8.30801 4.42899 8.65649 4.25657 9.04618C4.08414 9.43586 3.99671 9.85781 4.00009 10.2839V19.0239C4.00009 19.8196 4.31617 20.5826 4.87877 21.1453C5.44138 21.7079 6.20445 22.0239 7.00009 22.0239H19.0001C19.7957 22.0239 20.5588 21.7079 21.1214 21.1453C21.684 20.5826 22.0001 19.8196 22.0001 19.0239V10.2739C22.0021 9.84949 21.9139 9.42947 21.7416 9.04161C21.5692 8.65375 21.3165 8.30689 21.0001 8.02393ZM15.0001 20.0239H11.0001V15.0239C11.0001 14.7587 11.1055 14.5044 11.293 14.3168C11.4805 14.1293 11.7349 14.0239 12.0001 14.0239H14.0001C14.2653 14.0239 14.5197 14.1293 14.7072 14.3168C14.8947 14.5044 15.0001 14.7587 15.0001 15.0239V20.0239Z" fill="#505966"/>
<path d="M10 16C10 14.3431 11.3431 13 13 13C14.6569 13 16 14.3431 16 16V20H10V16Z" fill="#A0A4A9"/>
</svg>
