<svg width="39" height="39" viewBox="0 0 39 39" fill="none" xmlns="http://www.w3.org/2000/svg">
<path d="M16.0002 28.0803L13.1682 30.8323C12.4256 31.575 11.4184 31.9921 10.3682 31.9921C9.31802 31.9921 8.31083 31.575 7.56823 30.8323C6.82562 30.0897 6.40843 29.0826 6.40843 28.0323C6.40843 26.9821 6.82562 25.975 7.56823 25.2323L14.8322 17.9523C15.5452 17.2371 16.5059 16.8232 17.5155 16.7964C18.525 16.7696 19.5063 17.1319 20.2562 17.8083L20.4482 17.9683C20.7516 18.2654 21.1606 18.4297 21.5852 18.4252C22.0098 18.4207 22.4152 18.2478 22.7122 17.9443C23.0093 17.6409 23.1736 17.232 23.1691 16.8074C23.1646 16.3828 22.9916 15.9774 22.6882 15.6803C22.5979 15.5636 22.5018 15.4514 22.4002 15.3443C21.0344 14.156 19.268 13.5313 17.4587 13.5967C15.6495 13.662 13.9328 14.4126 12.6562 15.6963L5.29623 22.9763C4.0456 24.3376 3.36922 26.1294 3.40835 27.9776C3.44747 29.8257 4.19908 31.5873 5.5062 32.8944C6.81332 34.2015 8.57489 34.9531 10.423 34.9922C12.2712 35.0314 14.063 34.355 15.4242 33.1043L18.1922 30.4003C18.4655 30.1022 18.6158 29.7116 18.6127 29.3071C18.6097 28.9027 18.4535 28.5144 18.1758 28.2204C17.898 27.9264 17.5192 27.7485 17.1155 27.7225C16.7119 27.6965 16.3134 27.8244 16.0002 28.0803V28.0803ZM33.1042 5.29635C31.7583 3.95876 29.9378 3.20801 28.0402 3.20801C26.1427 3.20801 24.3222 3.95876 22.9762 5.29635L20.2082 8.00035C19.9349 8.29851 19.7847 8.68911 19.7877 9.09357C19.7908 9.49803 19.9469 9.88633 20.2247 10.1803C20.5025 10.4743 20.8813 10.6522 21.2849 10.6782C21.6886 10.7042 22.0871 10.5763 22.4002 10.3203L25.1682 7.56835C25.9108 6.82574 26.918 6.40855 27.9682 6.40855C29.0184 6.40855 30.0256 6.82574 30.7682 7.56835C31.5108 8.31095 31.928 9.31814 31.928 10.3683C31.928 11.4186 31.5108 12.4257 30.7682 13.1683L23.5042 20.4483C22.7912 21.1636 21.8306 21.5775 20.821 21.6043C19.8114 21.6311 18.8302 21.2688 18.0802 20.5923L17.8882 20.4323C17.5848 20.1353 17.1758 19.971 16.7513 19.9755C16.3267 19.98 15.9213 20.1529 15.6242 20.4563C15.3272 20.7598 15.1628 21.1687 15.1673 21.5933C15.1718 22.0179 15.3448 22.4233 15.6482 22.7203C15.7644 22.8392 15.8873 22.9514 16.0162 23.0563C17.3837 24.2411 19.1494 24.8635 20.9575 24.7981C22.7656 24.7328 24.4818 23.9846 25.7602 22.7043L33.0402 15.4243C34.3864 14.0869 35.1486 12.2711 35.1606 10.3735C35.1726 8.47597 34.4333 6.65073 33.1042 5.29635V5.29635Z" fill="white"/>
</svg>
