<svg width="16" height="16" viewBox="0 0 16 16" fill="none" xmlns="http://www.w3.org/2000/svg">
<g clip-path="url(#clip0_1_3428)">
<path d="M15.8484 9.25895L15.6004 8.65945C15.4213 8.23314 15.4213 7.75354 15.6004 7.34055L15.8484 6.74105C16.1791 5.96836 15.876 5.06245 15.1595 4.63614L15.0218 4.5562L14.4982 4.24979C14.1675 4.04996 13.9195 3.75687 13.7955 3.39717C13.768 3.34388 13.7542 3.29059 13.7404 3.22398L13.5475 2.49126C13.3408 1.71857 12.6244 1.18568 11.8252 1.23897L10.8883 1.30558C10.475 1.33222 10.0754 1.199 9.74475 0.945878L9.01451 0.3597C8.72517 0.1199 8.35316 0 7.99493 0C7.6367 0 7.26469 0.1199 6.96157 0.3597L6.23133 0.945878C5.90066 1.21232 5.50109 1.33222 5.08775 1.30558L4.15084 1.23897C3.35171 1.18568 2.63525 1.70525 2.42858 2.49126L2.23569 3.22398C2.12546 3.65029 1.8499 4.00999 1.47789 4.23647L0.816541 4.62281C0.10008 5.04913 -0.18926 5.95504 0.127637 6.72773L0.375642 7.32723C0.554758 7.75354 0.554758 8.23314 0.375642 8.64613L0.141415 9.25895C-0.18926 10.045 0.10008 10.9376 0.830319 11.3639L1.49167 11.7635C1.86368 11.99 2.13924 12.3497 2.24946 12.776L2.44236 13.5087C2.64903 14.2814 3.36549 14.8143 4.16462 14.761L5.10153 14.6944C5.51487 14.6678 5.92821 14.801 6.24511 15.0541L6.97535 15.6403C7.58159 16.1199 8.43583 16.1199 9.04206 15.6403L9.40029 15.3472C9.86875 14.9742 10.3785 14.9209 11.0399 15.0941L13.8644 15.9867C13.8782 15.9867 13.9057 15.9867 13.9057 15.96V13.0158C13.9057 12.5362 14.1537 12.0833 14.5533 11.8035L14.9942 11.4971C15.0493 11.4571 15.1182 11.4038 15.1733 11.3639C15.1871 11.3505 15.2009 11.3372 15.2284 11.3372L15.3111 11.2839C15.752 10.9642 16 10.4446 16 9.92506C15.9724 9.68526 15.9311 9.47211 15.8484 9.25895ZM9.56563 11.1774C9.45541 11.4971 9.23496 11.7769 8.95939 11.9634C8.68383 12.1499 8.35316 12.2565 7.99493 12.2565C7.27847 12.2565 6.65845 11.8168 6.42423 11.1774L4.1784 4.87594H6.28645L7.98115 10.1782L9.68963 4.87594H11.7977L9.56563 11.1774Z" fill="url(#paint0_linear_1_3428)"/>
</g>
<defs>
<linearGradient id="paint0_linear_1_3428" x1="8" y1="8" x2="14.75" y2="16" gradientUnits="userSpaceOnUse">
<stop stop-color="#FF6D75"/>
<stop offset="1" stop-color="#9C86FF"/>
</linearGradient>
<clipPath id="clip0_1_3428">
<rect width="16" height="16" fill="white"/>
</clipPath>
</defs>
</svg>
