<svg width="24" height="24" viewBox="0 0 24 24" fill="none" xmlns="http://www.w3.org/2000/svg">
<path fill-rule="evenodd" clip-rule="evenodd" d="M0 12C0 5.37258 5.37258 0 12 0C18.6274 0 24 5.37258 24 12C24 18.6274 18.6274 24 12 24C5.37258 24 0 18.6274 0 12Z" fill="#FF6D75"/>
<path d="M18.6626 10.1562C18.6205 10.0343 18.5439 9.92719 18.4421 9.8479C18.3404 9.76862 18.2178 9.72057 18.0892 9.70957L14.2959 9.15624L12.5959 5.70957C12.5413 5.59686 12.4561 5.5018 12.35 5.43529C12.2439 5.36877 12.1212 5.3335 11.9959 5.3335C11.8707 5.3335 11.748 5.36877 11.6419 5.43529C11.5357 5.5018 11.4505 5.59686 11.3959 5.70957L9.69592 9.14957L5.90258 9.70957C5.7792 9.72711 5.6632 9.77888 5.56775 9.85901C5.4723 9.93914 5.40122 10.0444 5.36258 10.1629C5.32721 10.2787 5.32404 10.4019 5.3534 10.5194C5.38276 10.6368 5.44355 10.7441 5.52925 10.8296L8.28258 13.4962L7.61592 17.2829C7.59212 17.4079 7.60458 17.5371 7.65183 17.6552C7.69908 17.7733 7.77915 17.8755 7.88258 17.9496C7.98339 18.0216 8.1023 18.0642 8.22595 18.0724C8.3496 18.0807 8.4731 18.0543 8.58258 17.9962L11.9959 16.2162L15.3959 18.0029C15.4895 18.0557 15.5952 18.0833 15.7026 18.0829C15.8438 18.0834 15.9815 18.0391 16.0959 17.9562C16.1993 17.8821 16.2794 17.78 16.3267 17.6619C16.3739 17.5437 16.3864 17.4146 16.3626 17.2896L15.6959 13.5029L18.4492 10.8362C18.5455 10.7547 18.6166 10.6475 18.6544 10.5271C18.6922 10.4068 18.695 10.2782 18.6626 10.1562Z" fill="white"/>
</svg>
